<?xml version="1.0" encoding="utf-8"?>
<!-- Generator: Adobe Illustrator 27.0.0, SVG Export Plug-In . SVG Version: 6.00 Build 0)  -->
<svg version="1.1" id="圖層_1" xmlns="http://www.w3.org/2000/svg" xmlns:xlink="http://www.w3.org/1999/xlink" x="0px" y="0px"
	 viewBox="0 0 545 75.57" style="enable-background:new 0 0 545 75.57;" xml:space="preserve">
<style type="text/css">
	.st0{fill:#003100;stroke:#000000;stroke-miterlimit:10;}
	.st1{fill:#C83100;}
	.st2{fill:#7B3100;}
	.st3{fill:#7F3100;}
	.st4{fill:#E73100;}
	.st5{fill:#CA3100;}
	.st6{fill:#7E3100;}
	.st7{fill:none;}
</style>
<path class="st0" d="M150.35,44.5"/>
<g>
	<g>
		<g>
			<path class="st1" d="M149.85,43.68c-11.77-5.93-22.6-8.7-34.02-8.7c-2.28,0-4.62,0.11-6.97,0.34V5.78c0-2.01,3.94-2.73,7.63-2.73
				l0.38,0c9.9,0.15,19.62,2.51,29.71,7.21c1.22,0.57,3.27,1.9,3.27,4.42V43.68z"/>
			<path d="M116.49,3.55c0.13,0,0.25,0,0.37,0c9.83,0.15,19.48,2.49,29.51,7.17c1.11,0.52,2.98,1.72,2.98,3.97v28.19
				c-11.56-5.72-22.25-8.39-33.52-8.39c-2.12,0-4.29,0.1-6.47,0.29v-29C109.36,4.25,113.06,3.55,116.49,3.55 M116.49,2.55
				c-2.9,0-8.13,0.47-8.13,3.23c0,10.24,0,18.78,0,30.1c2.53-0.26,5.02-0.39,7.47-0.39c11.88,0,22.91,3.05,34.52,9.01
				c0-11.09,0-19.85,0-29.81c0-2.86-2.38-4.32-3.56-4.87c-9.99-4.65-19.65-7.11-29.92-7.26C116.75,2.55,116.62,2.55,116.49,2.55
				L116.49,2.55z"/>
		</g>
		<g>
			<g>
				<path class="st2" d="M141.84,17.57v-0.08c0.04,0.04,0.08,0.09,0.13,0.13C141.93,17.61,141.88,17.59,141.84,17.57z"/>
				<path d="M141.34,15.48c0,0-0.01,0.04,0,0.11C141.34,15.54,141.34,15.5,141.34,15.48L141.34,15.48z M141.34,15.59
					c0,0.48,0,2.1,0,2.32c0.29,0.15,3.89,1.43,4.59,1.66C141.78,17.66,141.37,16.01,141.34,15.59L141.34,15.59z"/>
			</g>
			<g>
				<path class="st2" d="M144.46,18.3c-1.32-0.45-2.61-1.03-2.61-2.71c0-0.56,0.17-0.88,1.02-0.88c0.81,0,2.06,0.32,3.92,1
					c1.05,0.38,1.86,0.57,2.48,0.57c0.22,0,0.42-0.02,0.59-0.07v3.94C148.92,19.83,144.46,18.3,144.46,18.3z"/>
				<path d="M142.86,15.21c0.74,0,1.97,0.32,3.75,0.97c1.11,0.41,1.97,0.6,2.65,0.6c0.03,0,0.06,0,0.09,0v2.67
					c-0.95-0.32-2.21-0.75-3.17-1.08l-1.56-0.53c-1.24-0.42-2.27-0.88-2.27-2.24c0-0.23,0.05-0.3,0.05-0.3
					C142.39,15.29,142.49,15.21,142.86,15.21L142.86,15.21 M142.86,14.21c-0.98,0-1.52,0.41-1.52,1.38c0,2.18,1.91,2.83,2.95,3.19
					c0.87,0.29,5.47,1.87,6.06,2.06c0-0.63,0-6.03,0-6.03c-0.04,0.28-0.01,0.97-1.09,0.97c-0.5,0-1.23-0.15-2.31-0.54
					C145.22,14.6,143.83,14.21,142.86,14.21L142.86,14.21z"/>
			</g>
		</g>
		<g>
			<g>
				<path class="st3" d="M115.54,14.54c0.05-0.01,0.09-0.02,0.14-0.03c0.49-0.12,0.87-0.28,1.17-0.47v0.93
					C116.5,14.86,116.05,14.71,115.54,14.54z"/>
				<path d="M117.35,12.46C117.35,12.46,117.35,12.46,117.35,12.46C117.35,12.46,117.35,12.46,117.35,12.46L117.35,12.46z
					 M117.35,12.46c0,0.02,0,0.04,0,0.06C117.35,12.49,117.35,12.47,117.35,12.46L117.35,12.46z M117.35,12.52
					c-0.01,0.24-0.13,1.1-1.79,1.51c-0.33,0.08-0.69,0.11-1.08,0.11c-1.8,0-3.98-0.74-4.31-0.83c0,0,7.02,2.3,7.18,2.35
					C117.35,15.45,117.35,13.08,117.35,12.52L117.35,12.52z"/>
			</g>
			<g>
				<path class="st3" d="M114.68,13.79c-0.26,0-0.54-0.03-0.81-0.08c-1.4-0.27-2.88-0.69-3.96-1c-0.48-0.14-0.81-0.23-1.05-0.29
					V7.93c1.11,1.01,2.89,1.5,4.14,1.85c0.31,0.09,0.59,0.16,0.81,0.24c1.74,0.58,3.03,1.11,3.03,2.37c0,0.39-0.19,0.72-0.56,0.98
					C115.89,13.64,115.32,13.79,114.68,13.79L114.68,13.79z"/>
				<path d="M109.36,8.91c1.14,0.7,2.53,1.08,3.51,1.35c0.3,0.08,0.57,0.16,0.79,0.23l0.05,0.02c1.49,0.5,2.64,0.95,2.64,1.88
					c0,0.59-0.86,0.91-1.66,0.91c-0.23,0-0.47-0.02-0.71-0.07c-1.37-0.26-2.84-0.68-3.92-0.99c-0.27-0.08-0.5-0.14-0.69-0.19V8.91
					 M108.36,5.78c0,1.14,0,7.06,0,7.06c0.37,0,3.03,0.91,5.42,1.37c0.31,0.06,0.61,0.09,0.9,0.09c1.49,0,2.66-0.75,2.66-1.91
					c0-1.74-1.93-2.36-3.37-2.84C112.49,9.05,108.36,8.37,108.36,5.78L108.36,5.78z"/>
			</g>
		</g>
		<g>
			<path class="st4" d="M116.85,49.23c-7.14-2.37-15.98-3.67-25-3.67c-8.81,0-17.46,1.24-24.51,3.51
				c4.9-9.37,15.64-18.61,20.53-21.61l0.64-0.39l-0.61-0.44c-4-2.88-8.47-5.03-12.78-7.1c-2.73-1.32-5.33-2.57-7.59-3.91
				c9.05-3.05,16.81-4.48,24.33-4.48c7.71,0,15.66,1.5,25,4.7V49.23z"/>
			<path d="M91.85,11.64c7.56,0,15.36,1.45,24.5,4.56v32.33c-7.07-2.25-15.7-3.48-24.5-3.48c-8.38,0-16.61,1.12-23.48,3.17
				c5.08-8.91,15.1-17.48,19.76-20.34l1.28-0.79l-1.22-0.88c-4.04-2.91-8.52-5.06-12.86-7.15c-2.34-1.13-4.59-2.21-6.59-3.33
				C77.28,12.95,84.68,11.64,91.85,11.64 M91.85,10.64c-8.09,0-16.18,1.62-25.5,4.85c5.85,3.7,14.37,6.59,21.25,11.54
				c-5.3,3.25-16.64,13.16-21.25,22.89c7.44-2.58,16.47-3.87,25.5-3.87s18.06,1.29,25.5,3.87c0-11.71,0-23.43,0-34.43
				C108.02,12.26,99.94,10.64,91.85,10.64L91.85,10.64z"/>
		</g>
		<g>
			<path class="st5" d="M361.09,14.69c0-2.52,2.05-3.85,3.27-4.42c10.09-4.7,19.81-7.06,29.71-7.21l0.38,0
				c3.69,0,7.63,0.72,7.63,2.73v29.55c-2.35-0.22-4.69-0.34-6.97-0.34c-11.43,0-22.26,2.77-34.02,8.7V14.69z"/>
			<path d="M394.45,3.55c3.43,0,7.13,0.7,7.13,2.23v29c-2.18-0.19-4.35-0.29-6.47-0.29c-11.27,0-21.96,2.67-33.52,8.39V14.69
				c0-2.24,1.87-3.45,2.98-3.97c10.03-4.67,19.68-7.02,29.51-7.17C394.2,3.55,394.32,3.55,394.45,3.55 M394.45,2.55
				c-0.13,0-0.27,0-0.39,0c-10.27,0.16-19.93,2.61-29.92,7.26c-1.18,0.55-3.56,2.01-3.56,4.87c0,9.96,0,18.72,0,29.81
				c11.61-5.96,22.64-9.01,34.52-9.01c2.45,0,4.93,0.13,7.47,0.39c0-11.32,0-19.86,0-30.1C402.58,3.02,397.35,2.55,394.45,2.55
				L394.45,2.55z"/>
		</g>
		<g>
			<g>
				<path class="st6" d="M369.1,17.49v0.08c-0.04,0.02-0.08,0.03-0.13,0.05C369.01,17.58,369.05,17.53,369.1,17.49z"/>
				<path d="M369.6,15.48c0,0.02,0,0.06,0,0.11C369.6,15.52,369.6,15.48,369.6,15.48L369.6,15.48z M369.6,15.59
					c-0.03,0.43-0.43,2.07-4.59,3.98c0.71-0.23,4.31-1.51,4.59-1.66C369.6,17.69,369.6,16.07,369.6,15.59L369.6,15.59z"/>
			</g>
			<g>
				<path class="st6" d="M361.09,16.2c0.17,0.05,0.37,0.07,0.59,0.07c0.62,0,1.43-0.19,2.48-0.57c1.86-0.68,3.1-1,3.92-1
					c0.85,0,1.02,0.32,1.02,0.88c0,1.68-1.29,2.26-2.61,2.71c0,0-4.46,1.52-5.4,1.84V16.2z"/>
				<path d="M368.08,15.21c0.37,0,0.47,0.08,0.47,0.08c0,0,0.05,0.07,0.05,0.3c0,1.36-1.03,1.82-2.27,2.24l-1.51,0.52
					c-0.98,0.34-2.27,0.77-3.22,1.1v-2.67c0.03,0,0.06,0,0.09,0c0.68,0,1.55-0.2,2.65-0.6C366.11,15.52,367.33,15.21,368.08,15.21
					 M368.08,14.21c-0.97,0-2.36,0.39-4.09,1.03c-1.08,0.4-1.81,0.54-2.31,0.54c-1.08,0-1.05-0.68-1.09-0.97c0,0,0,5.39,0,6.03
					c0.59-0.19,5.19-1.77,6.06-2.06c1.05-0.36,2.95-1.01,2.95-3.19C369.6,14.61,369.06,14.21,368.08,14.21L368.08,14.21z"/>
			</g>
		</g>
		<g>
			<g>
				<path class="st6" d="M394.1,14.04c0.29,0.18,0.68,0.34,1.17,0.47c0.04,0.01,0.09,0.02,0.14,0.03c-0.51,0.17-0.97,0.32-1.31,0.43
					V14.04z"/>
				<path d="M393.6,12.46c0,0.01,0,0.03,0,0.06C393.6,12.5,393.6,12.48,393.6,12.46L393.6,12.46z M393.6,12.52c0,0.56,0,2.93,0,3.14
					c0.16-0.05,7.18-2.35,7.18-2.35c-0.33,0.09-2.51,0.83-4.31,0.83c-0.38,0-0.75-0.03-1.08-0.11
					C393.73,13.62,393.6,12.76,393.6,12.52L393.6,12.52z"/>
			</g>
			<g>
				<path class="st6" d="M396.26,13.79c-1.08,0-2.16-0.48-2.16-1.41c0-1.26,1.29-1.79,2.98-2.35c0.27-0.09,0.55-0.17,0.86-0.25
					c1.25-0.35,3.03-0.84,4.14-1.85v4.49c-0.24,0.06-0.57,0.15-1.05,0.29c-1.08,0.31-2.57,0.73-3.96,1
					C396.79,13.77,396.52,13.79,396.26,13.79z"/>
				<path d="M401.58,8.91v3.13c-0.19,0.05-0.42,0.12-0.69,0.19c-1.07,0.31-2.54,0.72-3.92,0.99c-0.24,0.05-0.48,0.07-0.71,0.07
					c-0.81,0-1.66-0.32-1.66-0.91c0-0.93,1.14-1.38,2.64-1.88l0.05-0.02c0.21-0.07,0.48-0.14,0.79-0.23
					C399.04,9.99,400.44,9.61,401.58,8.91 M402.58,5.78c0,2.59-4.13,3.27-5.61,3.76c-1.44,0.48-3.37,1.1-3.37,2.84
					c0,1.16,1.17,1.91,2.66,1.91c0.29,0,0.59-0.03,0.9-0.09c2.39-0.46,5.05-1.37,5.42-1.37C402.58,12.84,402.58,6.91,402.58,5.78
					L402.58,5.78z"/>
			</g>
		</g>
		<g>
			<path class="st4" d="M394.1,15.85c9.34-3.21,17.29-4.7,25-4.7c7.52,0,15.28,1.42,24.33,4.48c-2.26,1.34-4.86,2.59-7.59,3.9
				c-4.32,2.08-8.78,4.23-12.79,7.11l-0.61,0.44l0.64,0.39c4.88,2.99,15.62,12.24,20.53,21.61c-7.05-2.27-15.7-3.51-24.51-3.51
				c-9.02,0-17.86,1.3-25,3.67V15.85z"/>
			<path d="M419.09,11.64c7.17,0,14.57,1.31,23.11,4.1c-2.01,1.12-4.25,2.2-6.59,3.33c-4.34,2.09-8.82,4.24-12.86,7.15l-1.22,0.88
				l1.28,0.79c4.65,2.85,14.68,11.43,19.76,20.34c-6.87-2.05-15.1-3.17-23.48-3.17c-8.8,0-17.43,1.23-24.5,3.48V16.2
				C403.73,13.09,411.54,11.64,419.09,11.64 M419.09,10.64c-8.09,0-16.18,1.62-25.5,4.85c0,11.01,0,22.72,0,34.43
				c7.44-2.58,16.47-3.87,25.5-3.87c9.03,0,18.06,1.29,25.5,3.87c-4.61-9.73-15.95-19.64-21.25-22.89
				c6.88-4.95,15.4-7.85,21.25-11.54C435.27,12.26,427.18,10.64,419.09,10.64L419.09,10.64z"/>
		</g>
		<g>
			<path class="st4" d="M255.47,74.91c-36.73,0-73.9-6.68-113.62-20.42V18.47c37.18,12.81,75.4,19.31,113.62,19.31
				s76.45-6.5,113.62-19.31v36.02C329.37,68.23,292.2,74.91,255.47,74.91z"/>
			<path d="M142.35,19.17c37.02,12.68,75.07,19.11,113.12,19.11s76.1-6.43,113.12-19.11v34.97
				c-39.54,13.64-76.55,20.27-113.12,20.27s-73.58-6.63-113.12-20.27V19.17 M369.6,17.77c-37.51,13-75.82,19.51-114.12,19.51
				s-76.61-6.5-114.12-19.51c0,13.44,0,23.79,0,37.08c39.53,13.71,76.83,20.56,114.12,20.56s74.59-6.85,114.12-20.56
				C369.6,43.46,369.6,31.61,369.6,17.77L369.6,17.77z"/>
		</g>
	</g>
	<path id="SVGID_x5F_1_x5F_" class="st7" d="M0,9.74c0,0,225.27,127.1,545,0"/>
	<text>	<textPath  xlink:href="#SVGID_x5F_1_x5F_" startOffset="26.0254%">
<tspan  style="font-family:'AdobeMingStd-Light-B5pc-H'; font-size:34.9755px;">                   </tspan><tspan  style="fill:#FFFFFF; font-family:'HannotateTC-W5-B5pc-H'; font-size:34.9755px;">Abby &amp;Brian</tspan>	</textPath>
</text>
</g>
</svg>
