<?xml version="1.0" encoding="utf-8"?>
<!-- Generator: Adobe Illustrator 25.0.0, SVG Export Plug-In . SVG Version: 6.00 Build 0)  -->
<svg version="1.1" id="圖層_1" xmlns="http://www.w3.org/2000/svg" xmlns:xlink="http://www.w3.org/1999/xlink" x="0px" y="0px"
	 width="1000px" height="1000px" viewBox="0 0 1000 1000" enable-background="new 0 0 1000 1000" xml:space="preserve">
<g id="圖層_2_1_">
	<g>
		<path fill="#E51C5A" d="M860.3,458.3c-1.5-0.6-2.6-1.7-3.2-3.1l0,0c-0.3-0.3-0.9-0.7-1.5-1.2l0,0c-2-1.5-5.1-3.7-9.2-6.3l0,0
			c-8.1-5.2-20-12.4-34.3-20.8l0,0c-28.7-16.8-67.6-38.8-108.1-61.4c-81-45.3-168.1-93.2-193.6-108.5l0,0c-3.5-2.1-5.7-3.4-7.2-4.6
			l0,0c-0.4-0.3-0.7-0.5-1.5-1.4l0,0c-0.3-0.5-1.2-1-1.4-3.9l0,0c0.2-2,0.6-2.8,0.9-3.1l0,0c0.1-0.1,0.1-0.2,0.2-0.3l0,0l0,0l0,0
			l0,0c0.9-1.3,2.2-2,3.1-2.3c1-0.3,1.7-0.4,2.3-0.4c1.6,0,2.6,0.3,3.8,0.7c1.2,0.4,2.5,0.8,4,1.4c3,1.2,6.9,2.8,11.5,4.9
			c9.2,4.2,21.5,10.2,36,17.4c22.3,11.1,54.5,27.7,82.3,41.9c-17-9.3-33.3-18.3-48.3-26.7c-33.4-18.7-59.6-33.9-71.3-42.4l0,0
			c-3.2-2.4-5.2-3.8-7-6.5l0,0c-0.4-0.8-1.1-1.8-1.1-3.8l0,0c0-1,0.2-2,0.7-2.9l0,0c0.3-0.6,0.7-1.1,1.1-1.5l0,0
			c1.1-1.1,2.6-1.7,4.2-1.7c0,0,0,0,0.4,0c0.1,0,0.4,0,0.7,0.1c0.3,0,0.4,0.1,0.5,0.1s0.2,0.1,0.3,0.1l0,0l0,0
			c0.2,0.1,0.3,0.1,0.4,0.1c0.2,0.1,0.3,0.1,0.4,0.2c0.2,0.1,0.4,0.2,0.7,0.3c0.6,0.3,1.3,0.6,2.3,1.1c2,0.9,4.8,2.3,8.4,4.1
			c7.2,3.5,17.6,8.7,30.2,14.9c25.2,12.5,59.5,29.5,96,47.6c2,1,14,7.1,10.7,5.2c-52.8-29.9-99.6-57.2-115.5-68.5l0,0
			c-3-2.2-4.7-3.3-6.5-5.6l0,0c-0.4-0.7-1.2-1.5-1.3-3.9l0,0c0-1.1,0.3-2.3,0.8-3l0,0c0.9-1.7,2.5-2.6,3.5-2.9
			c1.1-0.4,1.9-0.4,2.6-0.4c2.7,0.1,4.6,0.8,7.5,1.7c2.8,1,6.3,2.4,10.4,4.2c8.1,3.5,18.7,8.5,30.9,14.6
			c24.6,12.1,56.1,28.3,88.5,45.1c13.9,7.2,27.9,14.5,41.7,21.6c-56.1-31.2-118-65-148.6-82.7l0,0c-9.2-5.3-15.4-9-18.5-11.3l0,0
			c-0.9-0.8-1.4-0.8-2.7-2.6l0,0c-0.3-0.6-0.9-1.4-1-3.3l0,0c0-0.7,0.1-1.2,0.3-1.7l0,0l0,0l0,0c0,0,0,0,0-0.1l0,0
			c0-0.1,0.1-0.3,0.1-0.4l0,0c0.2-0.6,0.5-1,0.7-1.3l0,0l0,0c0.9-1.2,2-1.9,2.7-2.1c1.1-0.4,1.7-0.4,2.2-0.4c2.1,0.1,2.1,0.4,3,0.6
			c0.7,0.2,1.4,0.5,2.4,0.9c1.8,0.8,4.2,1.8,7.2,3.2c6,2.7,14.2,6.6,24.2,11.4c19.9,9.5,46.6,22.4,74.9,36.2
			c7.2,3.5,14.5,7,21.8,10.6c-21-11.7-41.6-23.3-59.6-33.7c-25.6-14.7-45.6-26.7-54.7-33.3l0,0c-2.5-1.9-4-2.9-5.7-5.3l0,0
			c-0.4-0.7-1-1.6-1.1-3.7l0,0c0-1.1,0.3-2.3,0.9-3.3l0,0l0,0c1-1.6,2.4-2.4,3.4-2.7s1.8-0.4,2.4-0.4c2.5,0.1,4.1,0.7,6.7,1.5
			c2.5,0.9,5.5,2,9.1,3.5c7.1,3,16.4,7.2,27.3,12.4c15.8,7.5,34.9,16.8,55.2,26.9c-31.4-17.8-56.6-32.1-62.5-35.7l0,0
			c-0.7-0.4-1-0.6-1.7-1.1l0,0c-0.2-0.2-0.4-0.3-1.1-1.1l0,0c-0.3-0.5-1-1-1.2-3.6l0,0c0-1.8,0.9-3.5,2.2-4.6l0,0
			c0.7-0.6,1.4-0.9,1.9-1c1-0.3,1.5-0.3,2-0.3c1.7,0.1,2,0.3,2.7,0.5s1.4,0.5,2.2,0.8c1.7,0.6,3.8,1.5,6.4,2.6
			c5.2,2.2,12.2,5.3,20.6,9.1c16.7,7.5,38.7,17.7,61.5,28.2c-26-15.2-61.4-35.3-61.9-35.8l0,0c-0.1-0.1-0.2-0.1-0.3-0.2
			c-0.4-0.2-0.8-0.6-1.2-1l0,0c0,0,0,0,0.1,0.1l0,0l-0.1-0.1l0,0c-0.1-0.1-0.1-0.2-0.2-0.3l0,0l-0.1-0.1l0,0c0,0,0,0,0,0.1l0,0
			c0-0.1-0.1-0.1-0.1-0.1l0,0c0-0.1-0.1-0.1-0.1-0.2l0,0c0,0,0-0.1-0.1-0.1l0,0v-0.1l0,0c-0.1-0.1-0.1-0.2-0.2-0.3l0,0
			c-0.1-0.3-0.3-0.6-0.4-1.1l0,0c-0.2-0.5-0.3-1.1-0.2-1.6l0,0v-0.1l0,0c0-1.6,0.6-3.1,1.7-4.2l0,0c1.1-1.1,2.6-1.7,4.2-1.7l0,0l0,0
			l0,0l0,0c0.2,0,0.4,0,0.8,0.1c0.3,0,0.4,0.1,0.4,0.1h0.1l0,0c0.1,0,0.3,0.1,0.4,0.1c0.1,0,0.1,0,0.2,0.1c0.2,0.1,0.5,0.1,0.8,0.3
			c0.6,0.2,1.5,0.5,2.7,0.9c2.3,0.8,5.5,1.8,9.5,3.2c7.9,2.7,18.7,6.3,30.3,10.1c5.7,1.9,11.5,3.8,17.3,5.7c0,0,0,0-0.1,0l0,0
			c-0.7-0.5-1.2-0.9-2-1.9l0,0c-0.4-0.6-1.3-1.2-1.5-4l0,0c0-1.8,0.7-2.8,1-3.3l0,0c1.8-2.7,5.5-3.4,8.2-1.6l0,0
			c0.6,0.4,1.1,0.9,1.5,1.5l0,0c0.1,0.1,0.2,0.1,0.3,0.2l0,0c0.9,0.6,2.4,1.6,4.3,2.7l0,0c3.8,2.2,9,5.2,14.4,8.2
			c10.9,6,22.6,12.2,26.2,14.3l0,0c0.6,0.3,0.8,0.5,1.5,1l0,0c0.2,0.2,0.4,0.3,1.1,1.1l0,0l0,0l0,0c0,0,0,0,0,0.1l0,0l0,0l0,0
			c0.1,0.1,0.2,0.3,0.3,0.4l0,0c0.2,0.3,0.4,0.6,0.6,1.1l0,0c0.1,0.1,0.1,0.3,0.1,0.5l0,0c0.4,1.6,0.1,3.4-0.8,4.8l0,0
			c-1.5,2.1-3,2.3-3.6,2.5c-0.7,0.2-1.1,0.2-1.4,0.2c-1.7-0.1-2.2-0.3-3.4-0.6c-1.1-0.3-2.5-0.7-4.2-1.2c-3.3-1-7.8-2.3-13-4
			c-10.4-3.3-23.9-7.7-37.3-12.1c-0.6-0.2-1.2-0.4-1.9-0.6l0,0c9.2,5.3,19.1,11,29.1,16.7c40.5,23.2,82.3,47.3,88.8,51.3l0,0
			c0.5,0.3,0.7,0.4,1.2,0.8l0,0l0,0l0,0c-0.2-0.1-0.4-0.2-0.5-0.3l0,0c0.2,0.1,0.3,0.2,0.5,0.3l0,0c0.1,0.1,0.1,0.1,0.2,0.1
			c0.1,0.1,0.2,0.2,0.4,0.3l0,0c-0.1-0.1-0.2-0.2-0.3-0.3l0,0c0.1,0.1,0.2,0.2,0.5,0.5l0,0c0.4,0.5,0.8,1,1.1,1.5l0,0
			c0.1,0.2,0.2,0.4,0.3,0.7l0,0c0,0,0,0,0,0.1l0,0c0.6,1.8,0.3,3.8-0.8,5.3l0,0c-1,1.4-2.4,2-3.2,2.2s-1.3,0.2-1.7,0.2
			c-1.2,0-1.4-0.2-1.8-0.3c-0.3-0.1-0.6-0.2-0.9-0.3c-0.5-0.2-1.1-0.4-1.8-0.7c-1.4-0.5-3.1-1.3-5.3-2.3c-4.4-1.9-10.5-4.7-17.8-8
			c-14.7-6.7-34.3-15.8-55.2-25.5c-4-1.9-8-3.7-12.1-5.6l0,0c39.5,22.4,79.8,45.3,101.1,58l0,0c7.2,4.3,12.1,7.3,14.5,9.1l0,0
			c0.7,0.6,1.1,0.6,2.3,2.3l0,0c0.2,0.4,0.7,1,0.9,2.2l0,0v0.1l0,0c0.1,0.3,0.1,0.7,0.1,1l0,0l0,0l0,0v0.1l0,0l0,0l0,0l0,0l0,0v0.1
			l0,0c0,0,0,0,0,0.1l0,0c0,0,0,0,0,0.1l0,0c-0.1,1-0.4,2-0.9,2.8l0,0c-1,1.6-2.6,2.3-3.4,2.5c-0.9,0.2-1.4,0.2-1.7,0.2
			c-1.3,0-1.6-0.2-2-0.3c-0.4-0.1-0.7-0.2-1.1-0.4c-0.7-0.3-1.5-0.6-2.5-1c-1.9-0.8-4.5-2-7.6-3.5c-6.3-3-15-7.3-25.4-12.5
			c-20.8-10.4-48.3-24.3-77-38.8c-25.6-12.9-52.1-26.1-75.4-37.5l0,0c14.9,8.5,31.2,17.7,47.9,27c59.1,33,122.5,67.6,140.4,77.9l0,0
			c2.4,1.4,3.9,2.3,5,3l0,0c0.4,0.4,0.5,0.1,1.7,1.7l0,0c0,0.1,0.1,0.1,0.1,0.2l0,0c0,0,0,0.1,0.1,0.1l0,0c0.2,0.3,0.5,0.8,0.6,1.5
			l0,0c0.4,1.5,0.2,3.1-0.6,4.5l0,0c-1.1,1.8-2.6,2.5-3.5,2.7c-0.9,0.3-1.5,0.3-1.9,0.3c-1.6-0.1-2.2-0.3-3.2-0.6
			c-0.9-0.3-1.9-0.6-3-1.1c-2.3-0.9-5.2-2.1-8.8-3.7c-7.1-3.1-16.8-7.5-28.2-12.9c-22.9-10.7-52.8-25.1-83.8-40.1
			c-0.8-0.4-1.6-0.8-2.4-1.2l0,0c26.1,14.5,52.1,28.9,74.4,41.6c27.9,15.8,49.9,28.7,59.6,35.6l0,0c2.7,2,4.3,3,6,5.3l0,0
			c0.4,0.7,1.2,1.6,1.2,3.8l0,0c0,0.8-0.2,1.7-0.4,2.2l0,0c-0.6,1.8-2.7,3.5-3.9,3.7c-1,0.3-1.7,0.4-2.3,0.4
			c-2.7-0.1-4.4-0.8-7.2-1.8c-2.7-1-6-2.4-9.9-4.2c-7.9-3.5-18.2-8.5-30.3-14.6c-24.2-12.1-55.5-28.3-87.9-45.1
			c-31.1-16.2-63.3-32.9-90.7-46.8l0,0c17.4,10.1,37.1,21.3,57.4,32.9c66.8,37.9,141.6,79.2,173.3,96.8c9.1,5.1,14.4,8,15.6,8.7l0,0
			c0.2,0.1,0.5,0.3,0.9,0.6l0,0c0.1,0.1,0.2,0.2,0.4,0.4l0,0c0.3,0.3,0.6,0.7,0.8,1l0,0c0.1,0.2,0.2,0.4,0.4,0.7l0,0
			c0.1,0.3,0.3,0.7,0.3,1.1l0,0v0.1l0,0c0.2,0.9,0.2,1.8-0.1,2.6l0,0c-0.1,0.6-0.3,1-0.5,1.2l0,0c-0.4,0.8-1,1.5-1.7,2l0,0
			c-2,1.4-3.3,1.1-3.6,1.2c-1.4-0.1-1.5-0.2-1.8-0.3c-0.3-0.1-0.4-0.1-0.6-0.2c-0.3-0.1-0.6-0.2-0.9-0.4c-0.7-0.3-1.5-0.7-2.5-1.1
			c-2.1-1-5-2.4-8.8-4.2c-7.5-3.6-18-8.7-30.8-15c-25.6-12.6-60.3-29.7-97-47.9c-24.8-12.2-50.5-25-75-37.2l0,0
			c68.5,37.5,146.7,79.4,185.8,102.3l0,0c11.3,6.6,19.1,11.5,23.3,14.8l0,0c1.1,0.9,2,1.6,3,2.9l0,0c0.4,0.7,1.3,1.6,1.4,4l0,0
			c0,0.8-0.2,1.7-0.5,2.4l0,0c-0.6,1.8-2.7,3.2-3.8,3.5c-1,0.3-1.6,0.3-2,0.3c-1.8-0.1-2.5-0.4-3.7-0.7c-1.1-0.4-2.3-0.8-3.8-1.4
			c-2.9-1.2-6.6-2.9-11.1-5c-9-4.3-21.2-10.3-35.7-17.6c-29-14.6-67-34.4-106.2-54.7c-2-1.1-4.1-2.1-6.2-3.2l0,0
			c73.1,40.8,144.6,81.3,166,96.2l0,0c3.3,2.4,5.3,3.7,7.2,6.1l0,0c0.4,0.7,1.3,1.6,1.4,4l0,0c0,0.8-0.2,1.7-0.4,2.3l0,0
			c-0.9,2.3-3.1,3.8-5.5,3.8C861.7,458.7,861,458.5,860.3,458.3L860.3,458.3z M876,401.9c0,0,0-0.1,0.1-0.1l0,0
			C876,401.8,876,401.9,876,401.9L876,401.9z M837.2,267.6c0,0,0-0.2,0-0.7l0,0c0-0.2-0.1-0.5-0.2-0.9l0,0
			C837.1,266.5,837.2,267,837.2,267.6L837.2,267.6z M836.6,265c0-0.1-0.1-0.1-0.1-0.2l0,0c-0.1-0.1-0.1-0.3-0.2-0.4l0,0
			C836.3,264.6,836.5,264.7,836.6,265L836.6,265z M836.1,264.3c-0.2-0.3-0.4-0.5-0.6-0.7l0,0C835.7,263.7,835.9,264,836.1,264.3
			L836.1,264.3z M518.9,232.3L518.9,232.3L518.9,232.3L518.9,232.3L518.9,232.3z M518.9,232.3c-0.1-0.1-0.3-0.2-0.4-0.4l0,0
			l-0.1-0.1l0,0C518.5,232,518.7,232.2,518.9,232.3L518.9,232.3z M517.4,230.5c0,0,0-0.1-0.1-0.1l0,0l0,0
			C517.4,230.4,517.4,230.5,517.4,230.5L517.4,230.5z M517.3,230.2c0,0,0-0.1-0.1-0.1l0,0c0,0,0-0.1-0.1-0.1l0,0
			C517.2,230,517.2,230.1,517.3,230.2L517.3,230.2z M781.4,205.6L781.4,205.6L781.4,205.6L781.4,205.6L781.4,205.6z M660.6,175.8
			c-0.1,0-0.2-0.1-0.2-0.1c-0.2-0.1-0.4-0.2-0.6-0.3l0,0C660.1,175.6,660.4,175.7,660.6,175.8z M658.3,174.2
			C658.3,174.2,658.2,174.2,658.3,174.2L658.3,174.2C658.2,174.2,658.2,174.2,658.3,174.2L658.3,174.2
			C658.2,174.2,658.2,174.2,658.3,174.2L658.3,174.2z M666.1,165.4c0,0,0.1,0,0.1,0.1l0,0c-0.1-0.1-0.2-0.2-0.4-0.2l0,0
			c0,0,0.1,0,0.1,0.1l0,0C665.9,165.3,666,165.4,666.1,165.4L666.1,165.4C666,165.4,666,165.4,666.1,165.4L666.1,165.4z M835,263
			c-0.1,0-0.1-0.1-0.2-0.1l0,0l0,0C834.9,262.9,835,263,835,263L835,263L835,263z M657.9,173.8L657.9,173.8L657.9,173.8
			c0.1,0.1,0.2,0.2,0.2,0.3l0,0l0,0l0,0C658,174,658,173.8,657.9,173.8L657.9,173.8z"/>
	</g>
	<path fill="#E51C5A" d="M542.4,851.2c0,0,0,0,0.1-0.2l0,0C542.4,851.1,542.4,851.2,542.4,851.2L542.4,851.2z"/>
	<path fill="#E51C5A" d="M541.9,846.8C541.9,846.8,541.9,846.7,541.9,846.8L541.9,846.8C541.9,846.7,541.9,846.7,541.9,846.8
		L541.9,846.8z"/>
	<path fill="#E51C5A" d="M541.8,846.5c-0.2-0.3-0.4-0.6-0.6-0.8l0,0C541.3,845.9,541.5,846.2,541.8,846.5L541.8,846.5z"/>
	<path fill="#E51C5A" d="M408.4,808c-0.2-0.1-0.4-0.2-0.5-0.4l0,0C408,807.7,408.2,807.8,408.4,808L408.4,808z"/>
	<path fill="#E51C5A" d="M407.8,807.6L407.8,807.6L407.8,807.6L407.8,807.6L407.8,807.6L407.8,807.6z"/>
	<path fill="#E51C5A" d="M406.1,805.6c-0.2-0.4-0.4-0.9-0.5-1.4l0,0C405.7,804.6,405.8,805.1,406.1,805.6L406.1,805.6z"/>
	<path fill="#E51C5A" d="M405.5,802.5c0-0.1,0-0.2,0-0.3l0,0C405.5,802.2,405.5,802.3,405.5,802.5L405.5,802.5z"/>
	<path fill="#E51C5A" d="M611.2,778.3L611.2,778.3L611.2,778.3L611.2,778.3L611.2,778.3L611.2,778.3z"/>
	<polygon fill="#E51C5A" points="611.2,775.4 611.2,775.4 611.2,775.4 	"/>
	<path fill="#E51C5A" d="M763.3,640.4L763.3,640.4L763.3,640.4L763.3,640.4L763.3,640.4z"/>
	<path fill="#E51C5A" d="M200.5,607.4c-0.2-0.1-0.3-0.1-0.4-0.2l0,0C200.2,607.3,200.3,607.4,200.5,607.4z"/>
	<path fill="#E51C5A" d="M198.5,606.1C198.5,606.1,198.4,606.1,198.5,606.1L198.5,606.1c-0.2-0.2-0.3-0.3-0.5-0.5l0,0
		C198.1,605.8,198.3,606,198.5,606.1L198.5,606.1z"/>
	<path fill="#E51C5A" d="M196.9,603.4c-0.1-0.3-0.1-0.6-0.1-0.8l0,0C196.8,602.8,196.8,603,196.9,603.4L196.9,603.4z"/>
	<path fill="#E51C5A" d="M159.2,275.2c-0.2-0.3-0.4-0.5-0.6-0.8l0,0l0,0C158.8,274.6,159,274.9,159.2,275.2L159.2,275.2z"/>
	<g>
		<path fill="#E51C5A" d="M509.9,866.4c-0.3-0.2-0.7-0.4-1.1-0.7l0,0c-1.3-0.8-3.3-2-5.8-3.4c-5-2.9-12.1-6.8-20.2-11.2
			c-16.1-8.9-35.9-19.8-51.1-28.5c-10.2-5.8-18.1-10.5-22-13.2l0,0c-1.1-0.9-1.7-1.1-3.1-2.9l0,0c-0.3-0.6-1-1.4-1.1-3.5l0,0
			c0-0.4,0.1-1,0.2-1.5l0,0c0.1-0.5,0.3-1,0.6-1.4l0,0l0,0l0,0c0,0,0,0,0-0.1l0,0c0.1-0.1,0.1-0.2,0.2-0.3l0,0
			c0.2-0.3,0.5-0.6,0.8-0.9l0,0c1.1-1.1,2.6-1.7,4.2-1.7c0.4,0,1,0,1.5,0.2c0.1,0,0.2,0.1,0.3,0.1c0.2,0.1,0.3,0.1,0.4,0.1
			c0.3,0.1,0.6,0.2,0.9,0.3c0.7,0.3,1.7,0.7,3,1.1c2.5,1,6.1,2.4,10.5,4.1c8.7,3.4,20.5,8.1,33.2,13c5.2,1.9,13.3,5.3,17.2,6.6
			c-11.3-6.5-23.6-13.5-36.1-20.7c-47.4-27.1-97.9-56.1-111-63.9l0,0c-1.9-1.1-2.7-1.6-3.7-2.3l0,0c-0.2-0.2-0.3-0.2-1-0.9l0,0
			c-0.2-0.5-1.1-0.7-1.4-3.8l0,0c0-0.8,0.2-1.6,0.5-2.3l0,0l0,0c0.8-1.9,2.5-3,3.5-3.3c1-0.4,1.7-0.4,2.2-0.4c1.4,0,1.9,0.2,2.7,0.4
			c0.7,0.2,1.4,0.4,2.2,0.7c1.6,0.6,3.6,1.4,6.1,2.4c4.8,2,11.3,4.9,19,8.5c15.4,7.1,35.7,16.6,57.3,26.8
			c24,11.3,49.7,23.4,71.6,33.5c-23.4-13.6-52.4-30.1-82.3-47c-69.7-39.2-144.2-80.2-163.4-91.2l0,0c-2.7-1.6-4-2.3-5.1-3.1l0,0
			c-0.2-0.2-0.4-0.2-1-0.9l0,0c-0.2-0.5-1.2-0.7-1.5-3.9l0,0c0-1.1,0.3-2.2,0.9-3.2l0,0c0,0,0,0,0-0.1l0,0c0,0,0,0,0-0.1l0,0
			c0.9-1.4,2.3-2.2,3.1-2.4c1.1-0.3,1.7-0.4,2.3-0.4c2.9,0.1,4.4,0.9,7.5,1.9c2.8,1.1,6.4,2.6,10.7,4.5c8.5,3.9,19.9,9.4,33.3,16
			c26.7,13.3,61.5,31.2,97.3,49.8c-60.6-33.6-131.2-72.4-165.8-92.7l0,0c-12.1-7.1-20.6-12.3-25-15.6l0,0c-1.2-0.9-2-1.5-3-2.7l0,0
			c-0.4-0.7-1.4-1.3-1.6-4.3l0,0c0-0.8,0.2-1.6,0.5-2.3l0,0c0.3-0.7,0.7-1.4,1.3-1.9l0,0c1.1-1.1,2.6-1.7,4.2-1.7c0,0,0,0,0.1,0
			s0.2,0,0.5,0h0.1c0.4,0,0.6,0.1,0.8,0.1s0.4,0.1,0.7,0.2c0.1,0,0.1,0,0.2,0.1c0.2,0.1,0.3,0.1,0.5,0.2c0.3,0.1,0.6,0.3,0.9,0.4
			c0.7,0.4,1.7,0.8,2.9,1.5c2.4,1.3,6,3.1,10.4,5.5c8.9,4.7,21.6,11.4,37,19.6c30.8,16.3,72.3,38.3,115.7,61
			c66,34.6,136.6,70.9,179.8,91.4c-6.9-4.3-14.7-8.9-23.1-14l0,0c-36.1-21.4-84.8-48.9-134.4-76.6c-99.4-55.3-202.5-111.1-219.1-121
			l0,0c-1.1-0.7-1.8-1.1-2.6-1.7l0,0c-0.2-0.2-0.5-0.3-1.1-1.1l0,0c-0.3-0.5-1.1-0.9-1.4-3.8l0,0c0-1.3,0.4-2.5,1.2-3.5l0,0
			c0,0,0,0,0-0.1l0,0c0,0,0,0,0-0.1l0,0c0.9-1.1,2-1.8,2.8-2c1-0.4,1.7-0.4,2.3-0.4c1.9,0.1,2.8,0.4,4.1,0.8c1.3,0.4,2.8,1,4.5,1.7
			c3.5,1.4,8,3.5,13.5,6.1c11,5.2,25.8,12.6,43.4,21.6c35.1,18,81.3,42.2,128.9,67.3c-52.4-30.7-193.3-110.6-207-120l0,0
			c-4.2-2.6-6.7-4.2-8.3-5.5l0,0c-0.5-0.5-0.8-0.4-1.9-2.1l0,0c-0.3-0.5-0.8-1.3-0.8-3l0,0c0-1.3,0.4-2.3,0.8-3l0,0
			c0.3-0.4,0.6-0.8,0.9-1.1l0,0l0,0l0,0l0,0c0.5-0.6,1.1-1,1.7-1.2c1.1-0.5,1.9-0.6,2.6-0.6c1.8,0.1,1.9,0.3,2.6,0.5
			c0.5,0.2,1,0.4,1.5,0.6c1.1,0.5,2.4,1.1,4.1,1.9c3.3,1.6,7.9,3.9,13.6,6.9c11.4,5.9,27.4,14.3,46.5,24.5
			c38.3,20.4,89.5,47.8,142.5,76.2c77.9,41.6,160.1,85.3,211.8,111.4c-5.6-3.4-11.6-7-18-10.8l0,0c-39.7-23.6-93.5-54-149.4-85
			c-112.3-62-232.3-126.9-265.9-146.6l0,0c-4.6-2.7-7.4-4.4-9.1-5.6l0,0c-0.5-0.5-0.8-0.4-2-2.1l0,0c-0.3-0.5-0.8-1.3-0.9-3.1l0,0
			c0-0.6,0.1-1.2,0.2-1.7l0,0c0.1-0.5,0.3-0.9,0.6-1.3l0,0c0.2-0.3,0.3-0.5,0.5-0.7l0,0l0,0c0.6-0.8,1.4-1.4,2.1-1.7
			c1.1-0.5,1.9-0.6,2.6-0.6c2,0.1,2,0.4,2.7,0.5c0.5,0.2,1,0.4,1.5,0.6c1.1,0.5,2.5,1.2,4.2,2c3.5,1.7,8.3,4.2,14.4,7.4
			c12.1,6.4,29.1,15.4,49.6,26.5c40.9,22,95.6,51.7,152.4,82.4c68.7,37.1,144.9,78,196.2,104.7c-17.7-10.1-37.6-21.1-58.8-32.9
			c-79.5-44-177.8-97-252.7-138.6c-50-27.8-89.5-50.4-106.6-62.2l0,0c-4.7-3.3-7.5-5.3-9.7-8.2l0,0c-0.5-0.9-1.3-1.9-1.4-4.2l0,0
			c0-1,0.3-2.1,0.7-3l0,0c0.8-1.5,2.1-2.4,3.1-2.8s1.8-0.4,2.3-0.4c2.1,0.1,2.5,0.5,3.5,0.8c0.9,0.3,1.9,0.8,3.1,1.3
			c2.4,1.1,5.6,2.7,9.5,4.7c7.8,4,18.7,9.8,31.9,17c26.5,14.4,62.7,34.4,103.5,57.1c81.6,45.2,181.7,100.8,259.6,142.2
			c31.3,16.7,59.1,31,80.6,41.5c-6.3-3.8-13.3-7.9-20.9-12.4l0,0c-37.8-22.1-89.5-51.3-145.1-82.3
			c-111.1-62.2-237.4-131.6-298.5-167l0,0c-17.5-10.2-29.5-17.4-34.9-21.3l0,0c-1.5-1.2-2.3-1.6-3.8-3.5l0,0c-0.3-0.6-1-1.4-1-3.5
			l0,0c0-1.1,0.3-2,0.7-2.7l0,0l0,0l0,0l0,0l0,0l0,0c0.8-1.7,2.4-2.6,3.3-2.9c1-0.4,1.7-0.4,2.3-0.4c2.2,0.1,3.1,0.5,4.7,1.1
			c1.5,0.6,3.3,1.3,5.4,2.3c4.3,1.9,9.9,4.6,16.7,8.1c13.7,6.9,32.5,16.8,54.7,28.8c3.1,1.7,6.3,3.4,9.6,5.2
			c-40.5-23.1-71.8-41.9-87-53l0,0c-5-3.8-8.2-6.1-10.4-9.5l0,0c-0.5-0.9-1.2-2.1-1.3-4.2l0,0c0-1,0.2-2.1,0.8-3.1l0,0
			c0.5-1,1.3-1.7,1.9-2.2l0,0c1.1-0.7,2.2-1,3.3-1c1.4,0.1,1.6,0.2,2,0.3c0.3,0.1,0.6,0.2,0.8,0.3c0.5,0.2,0.9,0.4,1.5,0.7
			c1.1,0.5,2.7,1.3,4.6,2.3c3.8,1.9,9.2,4.8,16,8.3c13.6,7.2,32.7,17.5,55.8,29.9c46.1,24.9,108,58.4,172.2,93.1
			c65.1,35.1,136,73.2,190.1,101.7c-13.8-7.8-28.2-16.1-43.3-24.6C439.1,547.3,325,483.5,243.3,437c-54.6-31-94.4-54.1-105.2-61.6
			l0,0c-1.5-1.2-2.3-1.5-3.7-3.3l0,0c-0.3-0.6-1.1-1.3-1.3-3.7l0,0c0-1,0.3-1.9,0.6-2.5l0,0c0.8-1.7,2.3-2.8,3.3-3.1
			c1-0.4,1.7-0.4,2.3-0.4c2.1,0.1,2.6,0.5,3.7,0.8c1,0.4,2.1,0.9,3.4,1.5c2.6,1.2,6.1,2.9,10.4,5.2c8.6,4.4,20.5,10.8,35.1,18.8
			c29.2,15.9,69,38,113.8,63c89.7,49.9,199.5,111.3,284.7,157c32.5,17.4,61.5,32.6,84.3,44c-12.3-7.5-26.7-16-42.7-25.4l0,0
			c-54.3-31.9-126.8-73.4-199.7-114.7C286.4,429.9,139.4,348,133.8,344.7l0,0c-0.2-0.1-0.1,0-0.3-0.2l0,0c-0.1-0.1-0.3-0.2-0.4-0.3
			l0,0c0,0,0,0-0.1,0l0,0c-0.2-0.1-0.3-0.2-0.9-0.9l0,0l0,0l0,0l-0.1-0.1l0,0c-0.1-0.1-0.2-0.3-0.3-0.4l0,0
			c-0.2-0.3-0.4-0.7-0.6-1.3l0,0c-0.2-0.7-0.3-1.4-0.3-1.9l0,0v-0.1l0,0l0,0l0,0c0-0.5,0.1-1.1,0.3-1.6l0,0c0.1-0.4,0.3-0.8,0.5-1.2
			l0,0c0.3-0.6,0.8-1.1,1.3-1.6l0,0c0.5-0.4,1-0.7,1.4-0.9c1.1-0.5,1.9-0.5,2.5-0.6c1.5,0.1,1.8,0.3,2.4,0.4
			c0.5,0.2,0.9,0.3,1.3,0.5c0.9,0.4,1.9,0.9,3.2,1.5c2.5,1.2,5.9,3,10.2,5.3c8.6,4.5,20.6,11.1,35.4,19.2
			c29.6,16.3,70.2,39,116.1,64.6c91.8,51.3,204.7,114.3,292.3,161.2c9.2,4.9,18,9.6,26.6,14.2c-19.5-11.1-40.8-23.2-63.2-35.9
			C464.4,509.7,346.5,443,262,394.3c-56.4-32.5-97.6-56.6-108.6-64.5l0,0c-1.6-1.2-2.3-1.5-3.8-3.3l0,0c-0.3-0.6-1.1-1.2-1.3-3.8
			l0,0c0-0.8,0.2-2.1,0.8-3.1l0,0c0,0,0,0,0-0.1l0,0l0,0l0,0c0.9-1.4,2.2-2.3,3.2-2.6c1-0.4,1.7-0.4,2.3-0.4c2.3,0.1,3.3,0.6,5,1.2
			s3.6,1.4,6,2.5c4.7,2.1,10.9,5.2,18.6,9.1c15.3,7.8,36.1,18.9,61,32.3c49.6,26.9,115.1,63.1,182.8,100.6
			c88.5,49,187.2,103.5,248.8,136c-26.1-15-56.9-32.3-90.1-51c-98.4-55-218.4-121.2-305.6-170.4c-58.2-32.9-101.4-57.9-114.8-67.7
			l0,0c-1.8-1.3-3-2.3-4.3-3.7l0,0c-0.5-0.8-1.6-1.4-1.9-4.6l0,0c0-1,0.3-2.2,0.8-3.1l0,0c0.9-1.5,2.3-2.4,3.3-2.7
			c1.1-0.4,1.8-0.4,2.4-0.4c2.2,0.1,3.4,0.5,5.2,1.1s3.8,1.5,6.2,2.5c4.9,2.1,11.2,5.2,18.9,9.1c15.4,7.8,36.3,18.9,61.1,32.3
			c49.5,26.9,114.5,63.1,181.7,100.5C545,498.8,655.8,560.6,720.1,593.8c-0.4-0.2-0.7-0.4-1.1-0.7l0,0
			c-31.9-19.1-76.5-44.4-126.6-72.4C492.5,464.6,370,397.7,281.1,348c-59.4-33.2-103.5-58.4-117.1-68.2l0,0
			c-1.8-1.4-3.1-2.3-4.3-3.7l0,0c-0.5-0.8-1.6-1.4-1.9-4.7l0,0c0-0.8,0.2-1.7,0.5-2.5l0,0c0.3-0.7,0.7-1.3,1.2-1.8l0,0
			c1.1-1.1,2.6-1.7,4.2-1.7c0.2,0,0.5,0,0.8,0.1c0.3,0,0.5,0.1,0.6,0.1s0.1,0,0.2,0.1l0,0c0.2,0.1,0.3,0.1,0.4,0.2
			c0.2,0.1,0.3,0.1,0.4,0.2c0.2,0.1,0.3,0.2,0.5,0.2c0.3,0.2,0.8,0.4,1.3,0.7c1.1,0.6,2.7,1.4,4.7,2.5c4.1,2.1,10,5.3,17.5,9.3
			c15,8,36.4,19.4,62.3,33.3c52,27.5,121.7,64.9,193.6,103.5c65.4,35.1,138.7,74.5,192.5,103.3c-25.7-14.4-53.5-29.7-82.3-45.5
			c-122-66.8-261.2-141.3-330.8-181.7l0,0c-19.9-11.6-34-20.2-40.9-25.6l0,0c-1.8-1.5-3.2-2.6-4.4-4.2l0,0c-0.6-0.9-1.5-1.9-1.6-4.5
			l0,0c0-1.1,0.3-2.3,0.9-3.2l0,0l0,0c0.9-1.5,2.3-2.3,3.1-2.6c1-0.4,1.7-0.4,2.2-0.4c2.5,0.1,3.2,0.6,4.9,1.2
			c1.6,0.6,3.5,1.4,5.9,2.5c4.7,2.2,11.1,5.3,18.9,9.2c15.7,7.9,37.3,19.2,63.1,32.9c9,4.7,30.4,16.2,35.4,18.8
			c-54.2-30.2-96.6-54.6-115.7-67.8l0,0c-5.6-4-9-6.4-11.5-9.6l0,0c-0.6-0.9-1.4-2-1.5-4.4l0,0c0-1,0.2-2.1,0.8-3.1l0,0
			c0.8-1.5,2.2-2.4,3.1-2.7c1-0.4,1.7-0.4,2.3-0.4c1.5,0,2,0.3,2.7,0.5s1.3,0.5,2,0.8c1.5,0.6,3.3,1.4,5.5,2.5
			c4.5,2.1,10.6,5.2,18.2,9.1c15.2,7.9,36.2,19.1,61.4,32.7c50.3,27.2,117.2,64,186.5,102.1c13.5,7.4,27.1,14.9,40.8,22.4
			C379.4,325,250.1,252,211.9,229l0,0c-5.6-3.4-9.1-5.5-11-7l0,0c-0.6-0.5-0.8-0.4-2.1-2.1l0,0c-0.3-0.5-0.9-1.3-1-3.3l0,0
			c0.1-1.9,0.5-2.5,0.7-2.9l0,0c0-0.1,0.1-0.1,0.1-0.2l0,0l0,0l0,0l0,0c0.9-1.5,2.4-2.5,3.5-2.9c1.2-0.4,2.1-0.5,2.9-0.5
			c3.9,0.1,7.4,1.5,12.9,3.7c5.4,2.2,12.2,5.3,20.3,9.3c3,1.5,6.1,3,9.5,4.7c-2.4-1.6-4.6-3.1-6.5-4.4l0,0
			c-5.3-3.9-8.6-6.2-10.9-9.3l0,0c-0.6-0.9-1.4-1.9-1.5-4.4l0,0c0-1,0.3-2.2,0.8-3.2l0,0c0.9-1.6,2.5-2.7,3.7-3.1
			c1.2-0.4,2.2-0.5,3.1-0.5c3.6,0.1,6.9,1.3,11.8,3.1c4.8,1.9,10.7,4.5,17.8,7.9c6.1,2.9,13.1,6.4,20.9,10.4
			c-19.5-11.4-33.5-20-40.1-24.8l0,0c-1.8-1.3-3-2.3-4.2-3.6l0,0c-0.5-0.8-1.6-1.3-1.9-4.6l0,0c0-0.7,0.1-1.5,0.4-2.3l0,0
			c0.7-1.8,2.4-3.1,3.5-3.4c1.1-0.4,1.7-0.4,2.1-0.4c2,0.1,2.1,0.4,2.8,0.6c0.6,0.2,1.1,0.4,1.7,0.7c1.3,0.6,2.9,1.4,5,2.4
			c4.1,2,9.8,5,16.9,8.8c14.2,7.5,34.2,18.3,58.2,31.4c48,26.1,112.3,61.4,178.9,97.8c102.2,55.8,210.3,114.5,274.4,147.3
			c-7.6-4.6-15.8-9.5-24.7-14.7l0,0c-46.7-27.6-109.9-63.4-175.5-100.1c-131.3-73.5-272.3-150.7-311.7-173.8l0,0
			c-5.3-3.1-8.7-5.1-10.5-6.5l0,0c-0.6-0.5-0.8-0.4-2.1-2.1l0,0c-0.3-0.5-0.9-1.3-1-3.3l0,0c0-1.6,0.5-2.5,0.7-2.9l0,0
			c0.9-1.6,2.4-2.5,3.3-2.8c1-0.4,1.7-0.4,2.3-0.4c2.2,0.1,3.2,0.6,4.9,1.1c1.6,0.6,3.5,1.4,5.8,2.4c4.5,2,10.5,4.9,17.9,8.7
			c11.4,5.7,25.9,13.4,43,22.5c-13.5-8.1-24.5-15.1-32.3-20.6l0,0c-5.7-4-9.8-7.2-12.5-10.1l0,0c-1.3-1.7-2.8-2.8-3.1-6.7l0,0
			c0-1,0.2-2.1,0.7-3.1l0,0c0.1-0.3,0.3-0.6,0.5-0.8l0,0c0.9-1.3,2.1-1.8,2.7-2.1c1.1-0.4,1.6-0.4,1.9-0.4c0.1,0,0.1,0,0.2,0
			c1.5,0.1,1.5,0.2,1.9,0.3c0.3,0.1,0.5,0.2,0.8,0.3c0.5,0.2,1,0.4,1.6,0.6c1.2,0.5,2.9,1.2,5,2.1c4.2,1.8,10,4.4,17.1,7.6
			c14.1,6.4,33.1,15,53.4,24.2c4.3,2,8.6,3.9,13,5.9c-6.9-3.8-13.6-7.5-19.8-11c-15.4-8.6-27.4-15.6-33-19.5l0,0
			c-1.6-1.2-2.5-1.6-4-3.6l0,0c-0.4-0.6-1.1-1.5-1.1-3.6l0,0c0-1.1,0.3-2.3,0.9-3.2l0,0l0,0c1.2-1.9,2.8-2.5,3.6-2.7
			c0.9-0.2,1.4-0.2,1.9-0.3c1.5,0,2.4,0.3,3.7,0.6c1.3,0.3,2.7,0.7,4.5,1.2c3.4,1,7.7,2.4,12.7,4.1c8.1,2.8,17.8,6.2,27.9,9.9
			c-0.3-0.5-0.8-1.3-0.8-3l0,0c0-1.5,0.5-2.7,1.4-3.8l0,0c2.1-2.5,5.8-2.8,8.3-0.8l0,0c0.3,0.2,0.5,0.5,0.7,0.7l0,0l0.1,0.1l0,0
			c0.7,0.5,1.8,1.2,3.2,2l0,0c2.9,1.7,6.9,4.1,11.5,6.7c9.1,5.2,20.2,11.3,27.9,15.6c5.2,2.9,8.6,4.8,9.5,5.3l0,0
			c0.1,0.1,0.1,0.1,0.6,0.4l0,0l0,0l0,0c0,0,0.1,0,0.1,0.1l0,0l0,0c0.1,0.1,0.1,0.1,0.2,0.2l0,0c0,0,0,0,0.1,0.1l0,0l0,0l0,0
			c0.1,0.1,0.2,0.2,0.4,0.4l0,0c0.1,0.1,0.2,0.2,0.2,0.3l0,0l0,0l0,0l0,0l0,0c0.1,0.1,0.1,0.2,0.2,0.2l0,0l0,0l0,0
			c0.1,0.2,0.2,0.4,0.4,0.6l0,0l0,0l0,0l0,0c0.2,0.2,0.3,0.5,0.5,1l0,0c0.1,0.3,0.2,0.6,0.3,1l0,0c0-0.2-0.1-0.4-0.1-0.5l0,0
			c0.1,0.4,0.2,0.9,0.2,1.5l0,0c0,0,0,0,0-0.1l0,0c0,0,0,0,0,0.1l0,0c0,1.6-0.6,3.1-1.7,4.2l0,0c-2,1.7-2.4,1.3-2.9,1.6
			c-0.5,0.1-0.8,0.1-1.2,0.1c-1.2,0-1.2-0.2-1.5-0.2c-0.2-0.1-0.3-0.1-0.4-0.1c-0.2-0.1-0.4-0.1-0.7-0.2c-0.5-0.2-1.1-0.4-2-0.7
			c-1.6-0.6-3.9-1.4-6.6-2.4c-5.5-2-13.1-4.9-21.7-8.1c-8.7-3.3-18.5-6.9-28-10.3l0,0c4.6,2.6,9.4,5.2,14.3,7.9
			c31.6,17.4,67.6,36.9,85.8,47.6l0,0c5.2,3.1,8.8,5.3,11.1,7l0,0c0.6,0.5,1.1,0.9,1.9,1.9l0,0c0.3,0.6,1.2,1.3,1.3,3.8l0,0
			c0,0.6-0.1,1.1-0.1,1.3l0,0l0,0c-0.1,0.6-0.4,1.2-0.7,1.8l0,0c-1.1,1.8-2.6,2.4-3.4,2.6c-0.9,0.2-1.4,0.2-1.7,0.2
			c-1.6-0.1-1.9-0.3-2.6-0.4c-0.6-0.2-1.2-0.4-1.9-0.7c-1.4-0.5-3.2-1.2-5.5-2.2c-4.4-1.8-10.5-4.4-17.7-7.6
			c-14.5-6.4-33.7-15-54-24.3c-22.6-10.3-46.6-21.2-67-30.5l0,0c5.3,3.2,11,6.6,17.1,10.1l0,0c37.8,22.2,89.6,51,145.3,81.5
			c111.6,61.1,238.9,129.2,302.5,166.2l0,0c18.2,10.6,31.1,18.5,37.5,23.5l0,0c1.7,1.3,2.9,2.4,4.1,3.9l0,0c0.5,0.9,1.5,1.8,1.6,4.4
			l0,0c0,0.9-0.2,2-0.6,2.8l0,0c-0.7,1.7-2.6,2.9-3.6,3.2c-1,0.3-1.7,0.4-2.3,0.4c-2.1-0.1-3.3-0.5-5.1-1.1c-1.7-0.6-3.7-1.4-6-2.4
			c-4.7-2-10.8-5-18.3-8.7c-8.9-4.4-19.7-10-32.1-16.5l0,0c22.9,13.7,40.5,24.8,50.9,32.2l0,0c5.3,3.9,8.5,6.2,10.8,9.4l0,0
			c0.6,0.9,1.3,2,1.4,4.3l0,0c0,0.9-0.2,2.1-0.7,3l0,0c-0.8,1.7-2.5,2.7-3.6,3c-1,0.3-1.7,0.4-2.3,0.4c-2.1-0.1-3.3-0.5-5.2-1.1
			c-1.8-0.6-3.8-1.4-6.2-2.4c-4.9-2-11.2-5-18.9-8.7c-15.4-7.5-36.2-18.1-60.9-31c-11.1-5.8-22.9-12-35.3-18.7l0,0
			c3.1,1.7,6.1,3.5,9.2,5.2c57.3,32.5,99.8,57.3,113,67.3l0,0c1.8,1.4,3,2.4,4.2,3.8l0,0c0.5,0.8,1.6,1.5,1.8,4.6l0,0
			c0,0.8-0.2,1.8-0.6,2.6l0,0c-0.8,1.8-2.6,3.1-3.9,3.5c-1.2,0.4-2.1,0.5-3,0.5c-3-0.1-5.5-0.9-9.1-2.2c-3.5-1.3-7.8-3.1-12.8-5.4
			c-10.1-4.6-23.2-11.3-38.8-19.5c-31.2-16.5-72.3-39.4-118-65.3c-91.4-51.7-201-115.3-285.6-162.6c-36-20.1-67.6-37.3-91.2-49.4
			l0,0c10.9,6.7,23.8,14.4,38.3,22.9l0,0c47.5,27.9,111.7,64.3,178.3,101.6c132.9,75.4,276.1,154,316.2,177.7l0,0
			c5.4,3.2,8.8,5.3,10.7,6.7l0,0c0.6,0.5,0.9,0.5,2.1,2.2l0,0c0.3,0.5,0.8,1.3,0.9,3.1l0,0c0,1-0.3,2.1-0.8,3l0,0
			c-0.9,1.6-2.4,2.5-3.5,2.9s-2,0.4-2.8,0.5c-3.6-0.1-6.6-1.3-11.5-3.2c-4.7-1.9-10.6-4.6-17.7-8.1c-14.2-6.9-33-16.8-55.2-28.9
			c-0.3-0.1-0.5-0.3-0.8-0.4l0,0c39.5,22.9,67.3,39.5,76.3,45.8l0,0c1.6,1.2,2.4,1.6,3.9,3.4l0,0c0.3,0.6,1.1,1.3,1.2,3.7l0,0
			c0,0.4,0,0.8-0.1,1l0,0c0,0.2-0.1,0.3-0.1,0.3l0,0c-0.1,0.6-0.4,1.2-0.7,1.8l0,0c-1,1.6-2.4,2.4-3.3,2.6c-0.9,0.3-1.5,0.3-1.9,0.3
			c-1.5,0-2-0.3-2.7-0.5s-1.3-0.5-2.1-0.8c-1.5-0.6-3.4-1.4-5.6-2.5c-4.5-2.1-10.7-5.2-18.3-9.1c-10.5-5.4-23.9-12.5-39.4-20.8l0,0
			c26.3,15.2,46.5,27.5,58.2,35.8l0,0c5.6,4.1,9.1,6.6,11.5,10l0,0c0.6,1,1.4,2.1,1.4,4.4l0,0c0,1.1-0.3,2.2-0.7,3l0,0
			c-0.7,1.7-3.3,3.1-4,3.1c-0.8,0.2-1.1,0.1-1.3,0.1c-1.5-0.1-1.7-0.3-2.1-0.3c-0.3-0.1-0.6-0.2-0.8-0.3c-0.5-0.2-1-0.4-1.6-0.7
			c-1.2-0.6-2.9-1.4-5-2.5c-4.2-2.1-10.1-5.2-17.5-9.2c-14.9-7.9-35.9-19.3-61.3-33c-16.5-9-34.9-18.9-54.5-29.6l0,0
			c51.1,28.7,92,52.8,112.8,67.3l0,0c6.2,4.4,10.7,7.8,13.5,10.9l0,0c1.4,1.8,3,3,3.3,6.9l0,0c0,1-0.2,2.2-0.8,3.3l0,0
			c-1,1.9-3,3.1-5.2,3.1l0,0l0,0l0,0l0,0c-0.2,0-0.4,0-0.6,0c-0.6-0.1-0.8-0.1-1-0.2c-0.4-0.1-0.7-0.2-0.9-0.3c0,0-0.1,0-0.1-0.1
			c-0.2-0.1-0.3-0.1-0.4-0.2c-0.3-0.1-0.6-0.3-1.1-0.6c-0.9-0.5-2.3-1.2-4-2.1c-3.5-1.9-8.6-4.6-15.1-8.1c-13.1-7-31.8-17-54.6-29.2
			c-26.4-14.2-58.4-31.3-93.4-50.1l0,0c8.4,4.7,16.6,9.4,24.6,13.9c60.1,34,107.5,61.7,128,76l0,0c5.6,4,9,6.5,11.3,9.7l0,0
			c0.6,0.9,1.4,2,1.5,4.4l0,0c0,1.1-0.3,2.1-0.6,2.8l0,0c-0.7,1.7-2.6,3-3.8,3.4c-1.1,0.4-1.9,0.4-2.6,0.4c-2.1,0-3.6-0.5-5.6-1.1
			c-1.9-0.6-4.2-1.4-6.8-2.5c-5.2-2.1-11.9-5.2-19.9-9.1c-16-7.8-37.4-18.9-62.5-32.4c-6.4-3.4-13.1-7-19.9-10.7l0,0
			c53.7,30.5,93.2,53.7,106,63.3l0,0c1.8,1.4,3.1,2.4,4.3,3.8l0,0c0.5,0.8,1.6,1.5,1.8,4.6l0,0c0,1-0.3,2-0.5,2.5l0,0
			c-0.7,1.8-2.7,3.2-3.8,3.5c-1.1,0.4-1.9,0.4-2.5,0.4c-2.1,0-3.5-0.5-5.5-1.1c-1.9-0.6-4.1-1.5-6.7-2.5c-5.2-2.1-11.8-5.2-19.9-9.1
			c-16.1-7.8-37.6-18.9-63-32.4c-50.7-26.9-116.8-63.2-184.7-100.6c-10-5.5-20-11.1-30.1-16.6l0,0c102.4,58.1,204,115.6,254,144.6
			l0,0c17.5,10.2,28.4,16.6,31.7,19l0,0c0.6,0.5,0.7,0.3,2,1.8l0,0c0.2,0.4,0.6,0.8,0.9,1.9l0,0c0.1,0.4,0.2,0.8,0.2,1.1l0,0l0,0
			l0,0c0,0.4,0,0.8,0,1l0,0c0,0.1,0,0.1,0,0.2l0,0v0.1l0,0c-0.1,0.8-0.4,1.5-0.7,2.2l0,0c-1,1.7-2.6,2.6-3.7,3
			c-1.2,0.4-2.1,0.5-2.9,0.5c-3.8-0.1-7.4-1.4-12.9-3.5c-5.4-2.1-12.2-5.1-20.4-8.9c-5.3-2.5-11.2-5.3-17.7-8.5l0,0
			c20.2,12.3,34.7,21.5,41.5,26.6l0,0c1.8,1.4,3,2.3,4.2,3.7l0,0c0.5,0.8,1.6,1.4,1.8,4.6l0,0c0,1-0.3,1.9-0.5,2.4l0,0
			c-0.7,1.8-2.7,3.3-4,3.7c-1.2,0.4-2.1,0.5-2.9,0.5c-3.8-0.1-7.3-1.4-12.8-3.4c-5.3-2.1-12-5-20-8.7c-12.8-6-29-14.1-47.6-23.7l0,0
			c8.7,5.1,16.7,9.7,23.8,14l0,0c18.2,10.8,30.7,18.4,36.2,22.6l0,0c1.5,1.2,2.4,1.6,3.8,3.6l0,0c0.3,0.6,1,1.4,1,3.5l0,0
			c0,0.9-0.2,1.8-0.3,1.9l0,0c-0.5,1.9-2.7,3.7-3.9,3.9c-1,0.3-1.6,0.3-2.2,0.3c-2-0.1-3-0.5-4.6-0.9c-1.5-0.5-3.2-1.2-5.3-2
			c-4.1-1.7-9.5-4.2-16-7.3c-13.1-6.2-30.8-15.2-51.9-26.1c-42.3-21.8-98.2-51.6-157.2-83.2c-40.1-21.5-81.6-43.9-121.1-65.3l0,0
			C456,575.6,580.3,642.7,642.7,678.6c18.1,10.5,30.8,18.2,37.1,22.8l0,0c1.7,1.3,2.8,2.2,4,3.5l0,0c0.5,0.8,1.6,1.5,1.8,4.5l0,0
			c0,0.8-0.2,1.9-0.5,2.6l0,0c-0.7,1.7-2.6,3.1-3.8,3.4c-1,0.3-1.8,0.4-2.4,0.4c-2,0-3.3-0.5-5-1c-1.7-0.6-3.7-1.3-6-2.3
			c-4.6-1.9-10.5-4.6-17.7-8.1c-14.3-6.9-33.5-16.8-56.1-28.8c-0.3-0.2-0.7-0.4-1-0.5l0,0c36,20.7,63.8,37.4,77.6,46.9l0,0
			c5,3.5,7.9,5.6,10.2,8.4l0,0c0.5,0.8,1.4,1.8,1.5,4.4l0,0c0,1-0.3,2-0.5,2.5l0,0c-0.7,1.9-2.8,3.3-4.1,3.7c-1.2,0.4-2.1,0.5-3,0.5
			c-3.6-0.1-7-1.3-12.1-3.1c-5-1.9-11.2-4.5-18.5-7.9c-6.5-3-14-6.6-22.2-10.6l0,0c8.9,5.4,16,10,21.2,13.6l0,0
			c4.7,3.4,7.6,5.4,9.8,8.5l0,0c0.5,0.9,1.3,2,1.4,4.2l0,0c0,1-0.3,2.1-0.7,2.9l0,0c-0.8,1.7-2.6,2.9-3.7,3.2
			c-1,0.3-1.7,0.3-2.2,0.3c-2-0.1-3-0.5-4.6-0.9c-1.5-0.5-3.3-1.2-5.4-2.1c-4.2-1.7-9.6-4.2-16.1-7.4c-8.2-3.9-18.2-8.9-29.7-14.7
			l0,0c13.6,8.4,24.7,15.4,32.3,20.9l0,0c5.1,3.6,8.7,6.5,11.1,9.1l0,0c1.1,1.5,2.6,2.5,2.9,6.3l0,0c0,0.9-0.2,2.1-0.8,3.2l0,0
			c-0.9,1.7-2.6,2.7-3.6,2.9c-1,0.3-1.7,0.3-2.2,0.3c-1.9-0.1-2.9-0.4-4.5-0.9c-1.5-0.5-3.1-1.1-5.1-1.9c-3.9-1.6-9-3.9-15.2-6.8
			c-12.3-5.8-28.9-14.1-48.6-24.2c-37.3-19.1-85.5-44.5-135.5-71.1l0,0c88.8,50.7,169.4,96.5,183.7,105.2l0,0
			c1.2,0.7,1.8,1.1,2.5,1.6l0,0c0.2,0.2,0.3,0.1,0.9,0.8l0,0c0.1,0.1,0.1,0.1,0.2,0.2l0,0c0.2,0.2,0.4,0.4,0.6,0.9l0,0
			c0,0.1,0.1,0.1,0.1,0.2l0,0c0.2,0.3,0.3,0.7,0.5,1.2l0,0v0.1l0,0c0.1,0.3,0.1,0.6,0.2,1l0,0c0,0.5,0,1-0.1,1.5l0,0
			c0,0.2-0.1,0.3-0.1,0.4l0,0c-0.1,0.6-0.4,1.2-0.7,1.7l0,0c-1,1.6-2.5,2.3-3.3,2.6c-0.9,0.3-1.5,0.3-1.9,0.3
			c-2-0.1-2.6-0.4-3.8-0.8c-1.1-0.4-2.3-0.9-3.8-1.5c-2.9-1.2-6.7-3-11.3-5.3c-9.3-4.5-22.1-10.9-37.4-18.8
			c-17.7-9.1-38.9-20.2-62-32.3l0,0c44.7,25.6,81.4,47.4,98.5,59.7l0,0c4.4,3.1,7.4,5.6,9.6,7.9l0,0c1,1.4,2.4,2.2,2.7,6l0,0
			c0,0.9-0.2,2.1-0.7,3l0,0c-0.8,1.7-2.6,2.9-3.7,3.1c-1.1,0.3-1.8,0.4-2.5,0.4c-2.9-0.1-5-0.9-8.4-2c-3.3-1.2-7.3-2.8-12.2-4.9
			c-9.6-4.2-22.3-10.1-37.2-17.3c-11.5-5.6-24.2-11.9-37.9-18.8l0,0c19.2,10.8,35.9,20.4,48.7,28.1l0,0
			c12.1,7.3,20.7,12.6,25.1,16.1l0,0c1.2,1,2.1,1.7,3.1,3l0,0c0.4,0.7,1.3,1.6,1.4,4.1l0,0c0,1-0.3,2-0.4,2.2l0,0
			c-0.6,1.8-2.8,3.4-3.8,3.6c-0.9,0.3-1.5,0.3-2,0.3c-1.9-0.1-2.4-0.4-3.5-0.7c-1-0.3-2.1-0.8-3.4-1.3c-2.6-1.1-5.9-2.6-10-4.6
			c-8.2-3.9-19.3-9.5-32.5-16.2c-18.3-9.3-40.7-20.9-64.7-33.4l0,0c9.2,5.3,18.1,10.4,26.6,15.2c29.8,17.2,53.3,31.2,63.8,38.6l0,0
			c2.9,2.1,4.5,3.2,6.3,5.5l0,0c0.4,0.7,1.2,1.5,1.3,3.9l0,0c0,0.7-0.2,1.8-0.5,2.6l0,0c-0.8,1.8-2.8,3.2-3.9,3.4
			c-1,0.3-1.7,0.3-2.3,0.3c-2.1-0.1-3.4-0.5-5.4-1.1c-1.9-0.6-4.2-1.4-6.8-2.4c-5.3-2-12.1-4.9-20.1-8.4c-15.9-7-36.4-16.4-58-26.5
			c-5.1-2.4-10.2-4.8-15.4-7.2l0,0c46.5,26.6,92.3,52.8,99.8,57.5l0,0c0.6,0.4,0.8,0.5,1.5,1l0,0l0,0l0,0l0.1,0.1l0,0
			c0.1,0.1,0.3,0.2,0.6,0.5l0,0c0.3,0.4,0.6,0.8,0.8,1.2l0,0c0.2,0.3,0.3,0.7,0.4,1.1l0,0c0.2,0.7,0.3,1.5,0.2,2.3l0,0
			c0,0.4-0.1,0.6-0.1,0.8l0,0c-0.1,0.6-0.4,1.1-0.7,1.7l0,0c-1.3,2-2.9,2.5-3.7,2.7c-0.9,0.2-1.3,0.2-1.7,0.2
			c-1.4,0-2.1-0.2-3.1-0.5c-0.9-0.2-2-0.5-3.2-0.9c-2.5-0.7-5.6-1.8-9.3-3.1c-7.4-2.6-17-6.2-27.5-10.2c-4.6-1.8-9.4-3.6-14.3-5.5
			l0,0c16.2,9,30.5,16.9,35.9,20.1l0,0c1.1,0.7,1.7,1,2.6,1.7l0,0c0.3,0.2,0.5,0.4,1.2,1.2l0,0c0.2,0.4,0.7,0.9,1,2.1l0,0l0,0
			c0.8,3.2-1.1,6.4-4.3,7.1c-0.5,0.1-1,0.2-1.4,0.2C512.4,868,511,867.4,509.9,866.4L509.9,866.4z"/>
		<path fill="#E51C5A" d="M749.4,484.5c-25.8-14.8-56.2-32-89.1-50.4c-21.8-12.2-44.7-25-68.1-38.1l0,0
			C650.5,429.3,706,460.8,749.4,484.5z"/>
		<polygon fill="#E51C5A" points="162,277 162,277 162,277 162,277 162,277 		"/>
		<path fill="#E51C5A" d="M160.5,276.3c0.3,0.2,0.6,0.4,1,0.5l0,0c-0.7-0.3-1.4-0.7-1.9-1.3l0,0c-0.1-0.1-0.2-0.2-0.3-0.3l0,0
			C159.6,275.6,160,276,160.5,276.3L160.5,276.3z"/>
		<path fill="#E51C5A" d="M449.9,198.9c0.1,0.3,0.1,0.7,0.1,0.9l0,0C450,199.5,449.9,199.2,449.9,198.9L449.9,198.9z"/>
		<path fill="#E51C5A" d="M448.8,196.3L448.8,196.3L448.8,196.3c0-0.1-0.1-0.1-0.2-0.2l0,0c0.2,0.2,0.4,0.5,0.6,0.8l0,0
			C449.1,196.7,448.9,196.5,448.8,196.3L448.8,196.3z"/>
		<path fill="#E51C5A" d="M447.9,195.4c-0.1-0.1-0.1-0.1-0.2-0.2l0,0l0,0l-0.1-0.1l0,0C447.7,195.3,447.8,195.3,447.9,195.4
			L447.9,195.4C447.9,195.5,447.9,195.5,447.9,195.4L447.9,195.4z"/>
	</g>
</g>
</svg>
